<svg id="Layer_1" enable-background="new 0 0 500 500" viewBox="0 0 500 500" xmlns="http://www.w3.org/2000/svg"><g clip-rule="evenodd" fill-rule="evenodd"><path d="m182.993 302.911h35.619c-11.516-12.729-2.554-33.399 14.83-33.399s26.347 20.669 14.83 33.399h35.619c6.664 0 12.116 5.452 12.116 12.116v35.618c12.731-11.517 33.399-2.552 33.399 14.83s-20.666 26.348-33.399 14.83v35.619c0 6.664-5.452 12.116-12.116 12.116h-100.898c-6.664 0-12.116-5.452-12.116-12.116v-100.897c0-6.664 5.452-12.116 12.116-12.116z" fill="#fa6e85"/><path d="m275.54 113.318 87.38 50.449c5.771 3.332 7.767 10.78 4.435 16.551l-50.449 87.38c-3.332 5.771-10.78 7.767-16.551 4.435l-30.846-17.809c16.339-5.267 18.91-27.648 3.856-36.339-15.053-8.691-33.15 4.725-29.543 21.509l-30.846-17.809c-5.771-3.332-7.767-10.78-4.435-16.551l17.809-30.846c-16.784 3.608-30.2-14.49-21.509-29.543s31.072-12.484 36.339 3.856l17.809-30.846c3.332-5.773 10.78-7.769 16.551-4.437z" fill="#19cfba"/><path d="m200.744 323.448-.809 1.078c-3.748 4.997-10.777 6.138-15.913 2.582l-48.897-33.851-17.876 35.752 21.143 18.5c8.535 7.468 10.461 19.705 4.633 29.434l-26.694 44.56c-3.21 5.358-9.461 7.76-15.433 5.93-4.312-1.321-7.292-2.833-9.508-7.28-1.701-3.413-1.904-6.979-.6-10.563l13.052-35.892-49.158-4.469c-11.044-1.07-18.173-4.133-21.907-8.921-4.583-5.879-3.266-14.556.016-23.28 6.207-16.502 21.161-41.581 30.311-57.11 8.404-14.263 16.753-26.851 22.922-32.752 9.259-8.858 17.511-13.682 26.251-14.104 15.83-.765 25.651 10.025 35.409 20.326l52.196 55.096c3.93 4.146 4.29 10.394.862 14.964z" fill="#60b7fe"/><ellipse cx="115.467" cy="199.706" fill="#f0b16e" rx="33.358" ry="33.358" transform="matrix(.055 -.999 .999 .055 -90.318 303.953)"/><path d="m391.964 308.385-15.517 45.711v61.429c0 6.893 5.622 12.516 12.515 12.516 6.595 0 11.752-4.026 12.862-10.353l10.374-59.123 22.345-53.627z" fill="#f0b16e"/><path d="m458.337 71.996c6.952 22.208-8.396 46.842-31.394 50.391-6.953-22.208 8.394-46.842 31.394-50.391z" fill="#fa6e85"/><path d="m360.371 71.996c-6.952 22.209 8.395 46.842 31.394 50.391 6.952-22.208-8.395-46.842-31.394-50.391z" fill="#fa6e85"/><ellipse cx="409.353" cy="139.509" fill="#f0b16e" rx="33.358" ry="33.358" transform="matrix(.045 -.999 .999 .045 251.438 542.121)"/><path d="m300.928 164.115.852-.775c4.378-3.984 10.961-4.063 15.434-.187l40.023 34.69 28.149-19.106c27.214-12.889 38.639-4.498 49.951 20.388 14.68 32.297 26.435 65.828 34.958 100.273-32.094 15.887-65.752 27.524-107.254 17.876l12.596-92.371-16.378 6.412c-8.52 3.336-17.834.844-23.55-6.301l-36.035-45.044c-3.836-4.795-3.289-11.721 1.254-15.855z" fill="#fa6e85"/><path d="m309.442 378.569c-3.257 0-6.404-1.201-8.777-3.386-4.372-3.966-11.538-.905-11.538 5.102v35.623c0 2.881-2.319 5.232-5.244 5.232h-100.858c-2.926 0-5.244-2.35-5.244-5.232v-84.783l2.319 1.624c8.225 5.691 19.376 3.884 25.338-4.11l.828-1.083c3.919-5.26 4.692-11.977 2.429-17.784h9.937c5.901 0 9.123-6.998 5.079-11.5-7.543-8.396-1.596-21.894 9.771-21.894 11.28 0 17.269 13.486 9.716 21.894-4.044 4.502-.822 11.5 5.079 11.5h35.607c2.926 0 5.244 2.348 5.244 5.24v35.613c0 6.013 7.148 9.074 11.538 5.102 8.335-7.542 21.861-1.659 21.861 9.727-.002 7.234-5.854 13.115-13.085 13.115zm167.654-78.06-.11-2.777c-8.501-34.44-20.426-68.575-35.386-101.476-3.423-7.515-7.563-15.388-13.359-21.234 18.922-10.107 26.733-33.312 17.499-52.756 16.993-11.218 25.228-32.737 19.156-52.345-.994-3.247-4.251-5.266-7.618-4.744-18.254 2.83-33.327 17.279-37.594 35.423-6.751-1.798-13.869-1.805-20.646 0-4.261-18.124-19.351-32.619-37.594-35.423-3.368-.513-6.625 1.497-7.618 4.744-6.065 19.588 2.227 41.142 19.156 52.345-8.165 17.158-3.077 37.605 11.869 49.123-4.475 2.071-4.649 2.544-9.164 5.626 1.009-7.711-2.466-15.277-9.329-19.226l-87.388-50.445c-9.053-5.238-20.701-2.119-25.946 6.948l-12.145 21.115c-12.919-12.213-33.332-9.118-42.01 5.883-8.747 15.119-.731 34.556 15.899 39.274l-12.145 21.107c-5.254 9.102-2.171 20.711 6.901 25.961l30.859 17.803c5.123 2.952 11.445-1.51 10.157-7.405-2.368-10.847 9.404-19.835 19.377-14.105 9.947 5.715 8.128 20.408-2.484 23.833-5.682 1.833-6.493 9.533-1.325 12.507l30.804 17.812c9.032 5.204 20.736 2.154 25.946-6.957l19.211-33.273c6.238 2.34 13.194 2.413 19.708-.138l5.465-2.139-10.986 80.755c-.497 3.523 1.767 6.836 5.244 7.636 5.796 1.348 11.427 2.294 16.947 2.889l-8.501 25.017c-.221.716-.387 1.458-.387 2.21v61.429c0 10.786 8.593 19.399 19.928 19.399 9.44 0 17.5-6.745 19.1-16.039l10.268-58.374 16.396-39.313c13.414-4.065 26.056-9.654 38.09-15.628 2.056-1.005 3.402-2.912 3.755-5.042zm-338.013-12.925 48.855 33.852c2.098 1.451 4.968.992 6.514-1.055.809-1.097 3.331-4.15.441-7.185l-52.885-55.812c-8.833-9.361-16.561-17.49-28.154-17.49-7.378 0-14.2 3.752-23.075 12.231-3.478 3.323-10.047 11.444-21.75 31.274-9.148 15.487-24.112 40.79-29.81 56.034-2.043 5.523-3.92 12.891-.994 16.628 2.539 3.285 8.501 5.469 17.113 6.303l49.131 4.459c4.507.408 7.378 4.977 5.852 9.214l-13.028 35.889c-.663 1.818-.607 3.405.276 5.141 1.287 2.609 2.939 3.03 5.355 3.769 2.981.91 5.907-.22 7.508-2.889l26.719-44.562c4.14-6.891 2.76-15.416-3.257-20.712l-21.143-18.5c-2.374-2.063-3.036-5.46-1.656-8.259l17.886-35.751c1.84-3.696 6.607-4.981 10.102-2.579zm-50.07-87.895c0-14.599 11.869-26.474 26.443-26.474 14.629 0 26.498 11.875 26.498 26.474 0 14.554-11.814 26.401-26.332 26.474-.497-.026-.994-.037-1.546-.037-13.967-.724-25.063-12.304-25.063-26.437zm220.429 138.898c-2.263 0-4.416.265-6.569.798v-24.371c0-10.48-8.501-19.007-18.99-19.007h-24.345c4.077-17.321-8.799-33.394-26.056-33.394-17.318 0-30.188 16.072-26.111 33.394h-9.771l-44.881-47.369c-5.08-5.212-9.678-10.365-15.954-14.83 11.372-7.12 18.935-19.748 18.935-34.118 0-22.19-18.051-40.241-40.243-40.241-22.137 0-40.188 18.051-40.188 40.241 0 13.756 6.901 25.924 17.5 33.183-14.827 9.639-23.908 23.561-36.821 45.681-9.329 15.813-23.462 39.716-29.589 56.032-4.913 13.014-4.582 22.806.994 29.935 5.079 6.525 13.801 10.297 26.719 11.545l40.243 3.661-9.992 27.492c-3.947 10.903 1.981 22.923 13.139 26.338 2.711.83 4.461 1.339 7.397 1.339 7.011 0 13.635-3.625 17.389-9.874l26.719-44.562c7.452-12.499 4.968-28.548-6.017-38.147l-17.169-14.995 11.979-23.904 26.277 18.188v94.307c0 10.472 8.501 18.996 18.99 18.996h100.857c10.489 0 18.99-8.524 18.99-18.996v-24.373c17.191 4.183 33.454-8.727 33.454-26.079-.002-14.82-12.092-26.87-26.886-26.87zm61.276-26.759c35.441 6.469 64.919-3.478 91.528-16.188-8.17-31.779-19.321-63.273-33.177-93.685-5.741-12.69-10.93-19.308-16.782-21.445-1.962-.709-3.526-.817-5.576-.871-4.803.037-10.71 1.715-17.886 5.083l-27.712 18.804c-2.595 1.742-6.017 1.55-8.391-.496l-40.023-34.687c-1.822-1.607-4.472-1.57-6.293.073l-.828.772c-1.877 1.678-2.098 4.524-.497 6.469l35.993 45.038c3.864 4.781 9.992 6.424 15.678 4.194l16.395-6.415c4.882-1.915 10.034 2.196 9.329 7.343zm35.165 44.075c-.221.468-.387.955-.442 1.46l-10.378 59.115c-1.212 6.796-11.703 5.919-11.703-.973v-60.291l9.329-27.548c9.266 0 17.339-.789 25.946-2.405zm-94.951-91.664c-1.435 2.504-4.637 3.357-7.121 1.917l-21.088-12.186c12.104-12.75 9.129-33.268-5.907-41.966-15.528-8.984-35.026-.185-39.25 15.895l-21.143-12.197c-2.5-1.429-3.317-4.696-1.932-7.148l17.831-30.843c2.995-5.149-1.589-11.417-7.397-10.167-11.144 2.398-19.733-9.6-14.132-19.373 5.606-9.783 20.385-8.272 23.848 2.526 1.796 5.601 9.511 6.53 12.531 1.331l17.775-30.852c1.453-2.469 4.664-3.357 7.177-1.91l87.388 50.445c2.432 1.435 3.313 4.704 1.877 7.148l-5.907 10.305-33.729-29.227c-7.121-6.139-17.665-6.01-24.621.304l-.828.769c-7.176 6.553-8.06 17.648-1.987 25.245l36.048 45.049c.11.183.276.358.442.541zm71.986-124.748c0-14.601 11.869-26.476 26.443-26.476 14.629 0 26.498 11.876 26.498 26.476 0 14.517-11.758 26.327-26.222 26.474-.883-.073-1.767-.101-2.65-.11-13.47-1.203-24.069-12.563-24.069-26.364zm-1.987-28.467c-10.154-6.523-16.203-18.588-15.236-30.53 10.795 4.242 18.814 14.501 20.536 26.116-1.878 1.331-3.644 2.799-5.3 4.414zm56.308-17.214c3.864-6.176 9.44-10.821 15.788-13.316 1.064 11.945-5.131 24.038-15.236 30.53-1.656-1.615-3.368-3.084-5.244-4.414.661-4.467 2.263-8.837 4.692-12.8z" fill="#1e2f3f"/></g></svg>