<?xml version="1.0" encoding="UTF-8"?>
<svg xmlns="http://www.w3.org/2000/svg" xmlns:xlink="http://www.w3.org/1999/xlink" version="1.1" id="Capa_1" x="0px" y="0px" viewBox="0 0 512 512" style="enable-background:new 0 0 512 512;" xml:space="preserve" width="512" height="512">
<g>
	<g>
		<path style="fill:#71DAF9;" d="M114.608,135.529C86.94,167.967,70.245,210.034,70.245,256&#10;&#9;&#9;&#9;c0,102.592,83.166,185.759,185.759,185.759c3.384,0,6.752-0.089,10.096-0.274l41.311-41.311v-85.421l-69.844-31.155V159.518&#10;&#9;&#9;&#9;L114.608,135.529z"/>
		<path style="fill:#71DAF9;" d="M423.36,336.685c11.788-24.397,18.395-51.776,18.395-80.685c0-45.483-16.356-87.155-43.501-119.448&#10;&#9;&#9;&#9;l-160.687,22.966v124.081l69.844,31.155L423.36,336.685z"/>
		<path style="fill:#30C3EF;" d="M297.643,387.419c-96.898,0-175.45-78.552-175.45-175.45c0-25.643,5.504-50,15.391-71.957&#10;&#9;&#9;&#9;l-22.975-4.482C86.94,167.967,70.245,210.034,70.245,256c0,102.592,83.166,185.759,185.759,185.759&#10;&#9;&#9;&#9;c3.384,0,6.752-0.089,10.096-0.274l41.311-41.311v-13.031C304.176,387.321,300.921,387.419,297.643,387.419z"/>
		<path style="fill:#8ED275;" d="M423.36,336.685c-28.643,59.325-87.904,101.086-157.26,104.8l-4.826-11.715&#10;&#9;&#9;&#9;c-3.095-7.512-0.576-16.142,6.003-20.836c4.601-3.263,7.324-8.557,7.324-14.197c-0.388-3.367,1.665-11.044-4.713-17.847&#10;&#9;&#9;&#9;l-9.097-9.701c-5.584-5.954-6.285-14.994-1.684-21.738l2.441-3.577c6.534-9.588,2.055-22.762-8.96-26.379l-26.411-8.67&#10;&#9;&#9;&#9;c-2.425-0.798-4.464-2.449-5.745-4.657l-18.113-31.157c-3.94-6.792-13.705-6.921-17.831-0.234l-4.335,7.026&#10;&#9;&#9;&#9;c-1.918,3.102-5.277,4.939-8.839,4.939c-6.827,0-11.78-6.447-10.072-13.02l9.379-35.903c0.741-2.86,2.675-5.269,5.302-6.623&#10;&#9;&#9;&#9;l19.112-9.838c4.308-2.208,6.4-7.027,5.39-11.498c-1.773-7.985-8.202-14.1-16.259-15.478c-9.757-2.037-16.006-1.599-23.825-6.349&#10;&#9;&#9;&#9;l-27.733-16.831c-6.857-4.166-11.909-10.748-14.148-18.451l-3.851-13.222v-0.008c34.074-39.948,84.77-65.279,141.396-65.279&#10;&#9;&#9;&#9;c57.101,0,108.184,25.767,142.25,66.311l-7.55,13.423c-2.87,5.128-8.207,8.692-14.35,9.185c-6.14,0.491-11.61,4.069-14.519,9.491&#10;&#9;&#9;&#9;l-6.913,12.883c-3.376,6.293-10.136,10.015-17.267,9.507c-4.317-0.288-5.13-0.427-7.187-0.427&#10;&#9;&#9;&#9;c-9.387,0-18.386,3.924-24.784,10.893c-12.622,13.78-6.555,28.407-16.944,42.212l-15.76,21.029&#10;&#9;&#9;&#9;c-3.666,4.899-2.619,11.852,2.337,15.446l13.657,9.902c2.651,1.918,6.019,2.554,9.193,1.732&#10;&#9;&#9;&#9;c18.659-4.652,19.864-5.648,24.429-5.648c5.608,0,11.063,2.224,15.099,6.325c11.45,11.635,23.94,2.478,35.798,8.798&#10;&#9;&#9;&#9;c10.499,5.661,11.551,5.895,13.891,7.711L423.36,336.685z"/>
		<path style="fill:#F37A86;" d="M242.994,42.667h-74.212l30.01,40.757h44.203c11.255,0,20.379-9.124,20.379-20.379v0&#10;&#9;&#9;&#9;C263.373,51.791,254.249,42.667,242.994,42.667z"/>
		<path style="fill:#D89B80;" d="M202.423,109.893c0,53.827-43.634,97.461-97.461,97.461S7.5,163.72,7.5,109.893&#10;&#9;&#9;&#9;c0-9.173,1.27-18.056,3.631-26.469l93.83-35.496l93.83,35.496C201.152,91.837,202.423,100.72,202.423,109.893z"/>
		<path style="fill:#C5836A;" d="M42.73,119.991c0-19.216,4.618-37.353,12.803-53.364L11.131,83.424&#10;&#9;&#9;&#9;C8.77,91.837,7.5,100.72,7.5,109.893c0,44.317,29.58,81.718,70.072,93.554C56.061,182.168,42.73,152.638,42.73,119.991z"/>
		<g>
			<g>
				<g>
					<ellipse style="fill:#E2E1F3;" cx="47.976" cy="135.205" rx="21.027" ry="16.745"/>
				</g>
				<g>
					<ellipse style="fill:#E2E1F3;" cx="161.947" cy="135.205" rx="21.027" ry="16.745"/>
				</g>
			</g>
		</g>
		<path style="fill:#80CC62;" d="M297.643,387.419c-7.907,0-15.689-0.532-23.319-1.546c0.612,3.704,0.057,6.968,0.275,8.864&#10;&#9;&#9;&#9;c0,5.64-2.723,10.934-7.324,14.197c-6.578,4.694-9.097,13.324-6.003,20.836l4.826,11.715&#10;&#9;&#9;&#9;c69.356-3.714,128.617-45.475,157.26-104.8l-1.31-1.008C390.273,367.633,346.27,387.419,297.643,387.419z"/>
		<path style="fill:#FBCC83;" d="M311.698,381.801c9.343-44.134,48.546-77.155,95.341-77.155c46.785,0,85.998,33.011,95.341,77.155&#10;&#9;&#9;&#9;L477.738,411.3H357.335L311.698,381.801z"/>
		<path style="fill:#F5B067;" d="M404.548,304.7c-45.688,1.15-83.674,33.753-92.85,77.1l33.376,21.574&#10;&#9;&#9;&#9;C345.676,360.802,369.547,323.861,404.548,304.7z"/>
		<path style="fill:#FDDACC;" d="M504.5,402.107c0,53.827-43.634,97.461-97.461,97.461s-97.461-43.634-97.461-97.461&#10;&#9;&#9;&#9;c0-6.962,0.73-13.764,2.121-20.307c37.852,3.411,70.083-9.913,85.548-17.896c6.142-3.171,13.444-3.171,19.586,0&#10;&#9;&#9;&#9;c15.465,7.983,47.695,21.307,85.548,17.896C503.77,388.353,504.5,395.145,504.5,402.107z"/>
		<path style="fill:#FDC8BB;" d="M345.053,405.023c0-8.465,0.928-16.712,2.674-24.652c-11.081,1.819-23.232,2.583-36.029,1.43&#10;&#9;&#9;&#9;c-1.39,6.542-2.121,13.344-2.121,20.307c0,49.343,36.669,90.114,84.242,96.566C364.334,478.002,345.053,443.766,345.053,405.023z"/>
		<g>
			<g>
				<g>
					<ellipse style="fill:#F98797;" cx="350.053" cy="427.419" rx="21.027" ry="16.745"/>
				</g>
				<g>
					<ellipse style="fill:#F98797;" cx="464.025" cy="427.419" rx="21.027" ry="16.745"/>
				</g>
			</g>
		</g>
		<path style="fill:#DD5C70;" d="M390.515,329.521c0,0-58.42,46.921-58.42-20.795s58.42-20.795,58.42-20.795V329.521z"/>
		<path style="fill:#DD5C70;" d="M423.563,329.521c0,0,58.42,46.921,58.42-20.795s-58.42-20.795-58.42-20.795V329.521z"/>
		<path style="fill:#F37A86;" d="M411.094,284.48h-8.11c-13.391,0-24.246,10.855-24.246,24.246v0&#10;&#9;&#9;&#9;c0,13.39,10.855,24.246,24.246,24.246h8.11c13.391,0,24.246-10.855,24.246-24.246v0C435.34,295.336,424.484,284.48,411.094,284.48&#10;&#9;&#9;&#9;z"/>
		<path style="fill:#5F66AB;" d="M198.792,83.424H11.131c11.544-40.963,49.176-70.993,93.83-70.993S187.248,42.461,198.792,83.424z"/>
		<path style="fill:#4C5792;" d="M112.372,12.724c-2.447-0.184-4.916-0.292-7.411-0.292c-44.654,0-82.286,30.03-93.83,70.993h37.415&#10;&#9;&#9;&#9;C58.896,51.824,82.292,26.134,112.372,12.724z"/>
	</g>
	<g>
		<g>
			
				<line style="fill:none;stroke:#000000;stroke-width:15;stroke-linecap:round;stroke-linejoin:round;stroke-miterlimit:10;" x1="60.23" y1="110.49" x2="60.23" y2="119.086"/>
			
				<line style="fill:none;stroke:#000000;stroke-width:15;stroke-linecap:round;stroke-linejoin:round;stroke-miterlimit:10;" x1="149.693" y1="110.49" x2="149.693" y2="119.086"/>
			<path style="fill:none;stroke:#000000;stroke-width:15;stroke-linecap:round;stroke-linejoin:round;stroke-miterlimit:10;" d="&#10;&#9;&#9;&#9;&#9;M93.168,118.83c2.867,3.29,7.086,5.373,11.793,5.373c4.707,0,8.926-2.082,11.793-5.373"/>
		</g>
		<g>
			
				<line style="fill:none;stroke:#000000;stroke-width:15;stroke-linecap:round;stroke-linejoin:round;stroke-miterlimit:10;" x1="362.307" y1="402.704" x2="362.307" y2="411.3"/>
			
				<line style="fill:none;stroke:#000000;stroke-width:15;stroke-linecap:round;stroke-linejoin:round;stroke-miterlimit:10;" x1="451.77" y1="402.704" x2="451.77" y2="411.3"/>
			<path style="fill:none;stroke:#000000;stroke-width:15;stroke-linecap:round;stroke-linejoin:round;stroke-miterlimit:10;" d="&#10;&#9;&#9;&#9;&#9;M395.246,411.044c2.867,3.29,7.086,5.373,11.793,5.373c4.707,0,8.926-2.082,11.793-5.373"/>
		</g>
		<path style="fill:none;stroke:#000000;stroke-width:15;stroke-linecap:round;stroke-linejoin:round;stroke-miterlimit:10;" d="&#10;&#9;&#9;&#9;M198.792,83.424H11.131c11.544-40.963,49.176-70.993,93.83-70.993S187.248,42.461,198.792,83.424z"/>
		<path style="fill:none;stroke:#000000;stroke-width:15;stroke-linecap:round;stroke-linejoin:round;stroke-miterlimit:10;" d="&#10;&#9;&#9;&#9;M135.582,397.428c32.429,27.639,74.474,44.331,120.422,44.331c3.384,0,6.752-0.089,10.096-0.274l-4.826-11.715&#10;&#9;&#9;&#9;c-3.095-7.512-0.575-16.142,6.003-20.836c4.601-3.263,7.324-8.557,7.324-14.197c-0.388-3.367,1.665-11.044-4.713-17.847&#10;&#9;&#9;&#9;l-9.097-9.701c-5.583-5.954-6.285-14.995-1.684-21.738l2.441-3.577c6.535-9.588,2.055-22.761-8.959-26.379l-26.412-8.67&#10;&#9;&#9;&#9;c-2.425-0.798-4.463-2.449-5.745-4.657l-18.113-31.157c-3.94-6.792-13.705-6.921-17.831-0.234l-4.334,7.026&#10;&#9;&#9;&#9;c-1.917,3.102-5.278,4.939-8.839,4.939c-6.827,0-11.78-6.447-10.072-13.02l9.379-35.903c0.741-2.86,2.675-5.269,5.302-6.623&#10;&#9;&#9;&#9;l19.111-9.838c4.308-2.208,6.4-7.027,5.391-11.498c-1.773-7.985-8.203-14.1-16.26-15.478c-7.638-1.594-13.127-1.683-18.902-3.92&#10;&#9;&#9;&#9;c-16.59,13.083-37.534,20.892-60.303,20.892c-9.436,0-18.556-1.345-27.185-3.847c-4.896,16.647-7.531,34.261-7.531,52.493&#10;&#9;&#9;&#9;c0,45.843,16.616,87.799,44.141,120.197"/>
		<path style="fill:none;stroke:#000000;stroke-width:15;stroke-linecap:round;stroke-linejoin:round;stroke-miterlimit:10;" d="&#10;&#9;&#9;&#9;M242.994,42.667h-67.479c10.803,11.333,18.909,25.26,23.276,40.757h44.203c11.255,0,20.379-9.124,20.379-20.379l0,0&#10;&#9;&#9;&#9;C263.373,51.791,254.249,42.667,242.994,42.667z"/>
		<path style="fill:none;stroke:#000000;stroke-width:15;stroke-linecap:round;stroke-linejoin:round;stroke-miterlimit:10;" d="&#10;&#9;&#9;&#9;M198.792,83.424H11.131C8.771,91.837,7.5,100.72,7.5,109.893c0,53.827,43.634,97.461,97.461,97.461&#10;&#9;&#9;&#9;c53.828,0,97.461-43.634,97.461-97.461C202.423,100.72,201.152,91.837,198.792,83.424z"/>
		<path style="fill:none;stroke:#000000;stroke-width:15;stroke-linecap:round;stroke-linejoin:round;stroke-miterlimit:10;" d="&#10;&#9;&#9;&#9;M334.243,289.681c10.525-38.482,56.271-1.75,56.271-1.75c3.644-2.19,7.909-3.451,12.469-3.451h8.11&#10;&#9;&#9;&#9;c4.561,0,8.825,1.261,12.469,3.451c0.002-0.002,7.425-5.96,16.977-10.566c0.803-7.011,1.216-14.14,1.216-21.365&#10;&#9;&#9;&#9;c0-45.483-16.356-87.155-43.501-119.448l-7.549,13.423c-2.87,5.128-8.207,8.692-14.35,9.185c-6.14,0.491-11.61,4.069-14.519,9.491&#10;&#9;&#9;&#9;l-6.913,12.884c-3.376,6.293-10.136,10.015-17.267,9.507c-4.317-0.288-5.13-0.427-7.187-0.427&#10;&#9;&#9;&#9;c-9.387,0-18.387,3.924-24.784,10.893c-12.622,13.78-6.555,28.407-16.944,42.212l-15.76,21.029&#10;&#9;&#9;&#9;c-3.666,4.899-2.618,11.852,2.337,15.446l13.657,9.902c2.651,1.918,6.019,2.554,9.193,1.732&#10;&#9;&#9;&#9;c18.659-4.652,19.864-5.648,24.429-5.648C326.733,286.182,330.781,287.4,334.243,289.681z"/>
		<path style="fill:none;stroke:#000000;stroke-width:15;stroke-linecap:round;stroke-linejoin:round;stroke-miterlimit:10;" d="&#10;&#9;&#9;&#9;M334.125,87.429c-22.039-10.231-46.421-16.268-72.122-17.084c-2.938,7.645-10.33,13.08-19.009,13.08h-44.203&#10;&#9;&#9;&#9;c2.361,8.413,3.631,17.296,3.631,26.469c0,31.058-14.528,58.722-37.159,76.569c5.774,2.237,11.264,2.326,18.902,3.92&#10;&#9;&#9;&#9;c8.057,1.378,14.487,7.493,16.26,15.478c1.01,4.471-1.083,9.29-5.391,11.498l-19.111,9.838c-2.627,1.354-4.561,3.763-5.302,6.623&#10;&#9;&#9;&#9;l-9.379,35.903c-1.708,6.573,3.245,13.02,10.072,13.02c3.561,0,6.921-1.837,8.839-4.939l4.334-7.026&#10;&#9;&#9;&#9;c4.125-6.688,13.891-6.559,17.831,0.234l18.113,31.157c1.281,2.208,3.319,3.859,5.745,4.657l26.412,8.67&#10;&#9;&#9;&#9;c11.014,3.618,15.494,16.791,8.959,26.379l-2.441,3.577c-4.601,6.744-3.9,15.784,1.684,21.738l9.097,9.701&#10;&#9;&#9;&#9;c6.378,6.803,4.326,14.48,4.713,17.847c0,5.64-2.723,10.934-7.324,14.197c-6.578,4.694-9.098,13.324-6.003,20.836l4.826,11.715&#10;&#9;&#9;&#9;c16.783-0.899,32.967-4.044,48.277-9.108c-3.111-9.529-4.799-19.701-4.799-30.269c0-6.962,0.73-13.765,2.121-20.307&#10;&#9;&#9;&#9;c3.84-18.139,12.731-34.392,25.112-47.256c-2.935-5.693-4.715-14.008-4.715-25.819c0-7.788,0.78-14.044,2.148-19.045&#10;&#9;&#9;&#9;c-3.462-2.28-7.51-3.499-11.646-3.499c-4.565,0-5.77,0.996-24.429,5.648c-3.174,0.822-6.542,0.185-9.193-1.732l-13.657-9.902&#10;&#9;&#9;&#9;c-4.955-3.594-6.003-10.547-2.337-15.446l15.76-21.029c10.39-13.805,4.323-28.431,16.944-42.212&#10;&#9;&#9;&#9;c6.397-6.969,15.397-10.893,24.784-10.893c2.057,0,2.87,0.139,7.187,0.427c7.131,0.508,13.891-3.215,17.267-9.507l6.913-12.884&#10;&#9;&#9;&#9;c2.909-5.422,8.379-9,14.519-9.491c6.144-0.493,11.48-4.057,14.35-9.185l7.549-13.423c-10.799-12.853-23.318-24.207-37.188-33.739&#10;&#9;&#9;&#9;"/>
		<path style="fill:none;stroke:#000000;stroke-width:15;stroke-linecap:round;stroke-linejoin:round;stroke-miterlimit:10;" d="&#10;&#9;&#9;&#9;M423.563,287.931c7.055,4.24,11.777,11.965,11.777,20.795l0,0c0,8.83-4.722,16.556-11.777,20.795&#10;&#9;&#9;&#9;c0.007,0.005,58.42,46.918,58.42-20.795S423.569,287.926,423.563,287.931z"/>
		<path style="fill:none;stroke:#000000;stroke-width:15;stroke-linecap:round;stroke-linejoin:round;stroke-miterlimit:10;" d="&#10;&#9;&#9;&#9;M378.738,308.726L378.738,308.726c0-8.83,4.722-16.556,11.776-20.795l0,0c0,0-58.419-46.921-58.419,20.795&#10;&#9;&#9;&#9;s58.419,20.795,58.419,20.795l0,0C383.46,325.282,378.738,317.556,378.738,308.726z"/>
		<path style="fill:none;stroke:#000000;stroke-width:15;stroke-linecap:round;stroke-linejoin:round;stroke-miterlimit:10;" d="&#10;&#9;&#9;&#9;M411.094,284.48h-8.11c-13.391,0-24.246,10.855-24.246,24.246v0c0,13.39,10.855,24.246,24.246,24.246h8.11&#10;&#9;&#9;&#9;c13.391,0,24.246-10.855,24.246-24.246v0C435.34,295.336,424.484,284.48,411.094,284.48z"/>
		<path style="fill:none;stroke:#000000;stroke-width:15;stroke-linecap:round;stroke-linejoin:round;stroke-miterlimit:10;" d="&#10;&#9;&#9;&#9;M397.246,363.905c6.142-3.171,13.444-3.171,19.586,0c15.465,7.982,47.695,21.307,85.547,17.896&#10;&#9;&#9;&#9;c-3.839-18.141-12.731-34.394-25.112-47.257c-13.888,26.949-53.699-5.019-53.705-5.023c-3.644,2.189-7.908,3.451-12.469,3.451&#10;&#9;&#9;&#9;h-8.11c-4.561,0-8.825-1.261-12.469-3.451c0,0-39.814,31.973-53.704,5.024c-12.381,12.864-21.272,29.117-25.112,47.256&#10;&#9;&#9;&#9;C349.55,385.212,381.781,371.887,397.246,363.905z"/>
		<path style="fill:none;stroke:#000000;stroke-width:15;stroke-linecap:round;stroke-linejoin:round;stroke-miterlimit:10;" d="&#10;&#9;&#9;&#9;M504.5,402.107c0,53.827-43.634,97.461-97.461,97.461s-97.461-43.634-97.461-97.461c0-6.962,0.73-13.764,2.121-20.307&#10;&#9;&#9;&#9;c37.852,3.411,70.083-9.913,85.548-17.896c6.142-3.171,13.444-3.171,19.586,0c15.465,7.983,47.695,21.307,85.547,17.896&#10;&#9;&#9;&#9;C503.77,388.353,504.5,395.145,504.5,402.107z"/>
	</g>
</g>















</svg>
