<svg xmlns="http://www.w3.org/2000/svg" xmlns:xlink="http://www.w3.org/1999/xlink" width="50" zoomAndPan="magnify" viewBox="0 0 37.5 37.499999" height="50" preserveAspectRatio="xMidYMid meet" version="1.0"><defs><clipPath id="3e5af6d981"><path d="M 3 1 L 36 1 L 36 34 L 3 34 Z M 3 1 " clip-rule="nonzero"/></clipPath><clipPath id="d39dec89c8"><path d="M 7.667969 0 L 42.429688 18.183594 L 31.105469 39.828125 L -3.652344 21.644531 Z M 7.667969 0 " clip-rule="nonzero"/></clipPath><clipPath id="894aafac37"><path d="M 7.667969 0 L 42.429688 18.183594 L 31.105469 39.828125 L -3.652344 21.644531 Z M 7.667969 0 " clip-rule="nonzero"/></clipPath></defs><g clip-path="url(#3e5af6d981)"><g clip-path="url(#d39dec89c8)"><g clip-path="url(#894aafac37)"><path fill="#00d5e0" d="M 10.839844 24.898438 C 11.074219 24.34375 12.238281 23.246094 12.855469 22.535156 C 15.203125 19.828125 17.550781 17.121094 19.910156 14.421875 C 20.894531 13.296875 21.855469 12.136719 22.925781 11.09375 C 24.355469 9.699219 25.46875 9.917969 26.378906 11.65625 C 26.796875 12.453125 27.292969 13.226562 27.570312 14.070312 C 27.714844 14.519531 27.605469 15.175781 27.371094 15.605469 C 27.078125 16.136719 26.582031 16.59375 26.085938 16.96875 C 22.042969 20.058594 17.984375 23.121094 13.921875 26.183594 C 13.609375 26.417969 12.914062 26.746094 12.566406 26.761719 C 11.957031 26.785156 11.511719 26.789062 11.117188 26.441406 C 10.785156 26.15625 10.660156 25.320312 10.839844 24.898438 Z M 7.941406 17.828125 C 9.121094 13.992188 10.351562 10.171875 11.433594 6.308594 C 11.695312 5.371094 11.839844 4.21875 11.628906 3.25 C 11.367188 2.050781 10.242188 1.359375 8.96875 1.226562 C 7.839844 1.105469 6.777344 1.726562 6.257812 2.929688 C 5.917969 3.714844 5.675781 4.566406 5.554688 5.414062 C 5.121094 8.410156 4.761719 11.417969 4.367188 14.421875 C 4.242188 15.355469 4 16.285156 3.980469 17.222656 C 3.953125 18.464844 4.941406 18.957031 5.914062 19.308594 C 6.777344 19.625 7.34375 19.117188 7.746094 18.273438 C 7.785156 18.191406 7.882812 18.015625 7.941406 17.828125 Z M 31.445312 28.179688 C 27.917969 28.476562 24.398438 28.859375 20.878906 29.242188 C 20.300781 29.304688 19.371094 29.367188 18.816406 29.558594 C 17.992188 29.839844 17.601562 30.40625 17.714844 31.425781 C 17.828125 32.453125 18.660156 32.726562 19.527344 32.773438 C 23.21875 32.964844 26.914062 33.191406 30.609375 33.246094 C 31.789062 33.265625 32.984375 33.371094 34.070312 32.902344 C 34.648438 32.652344 35.3125 31.324219 35.324219 30.695312 C 35.339844 29.957031 35.039062 28.949219 34.382812 28.476562 C 33.4375 27.796875 32.320312 28.105469 31.445312 28.179688 Z M 31.445312 28.179688 " fill-opacity="1" fill-rule="nonzero"/></g></g></g></svg>