<?xml version="1.0" encoding="UTF-8" standalone="no"?>
<!-- Created with Inkscape (http://www.inkscape.org/) -->

<svg
   version="1.1"
   id="svg3354"
   xml:space="preserve"
   width="682.66669"
   height="682.66669"
   viewBox="0 0 682.66669 682.66669"
   xmlns="http://www.w3.org/2000/svg"
   xmlns:svg="http://www.w3.org/2000/svg"><defs
     id="defs3358"><clipPath
       clipPathUnits="userSpaceOnUse"
       id="clipPath3368"><path
         d="M 0,512 H 512 V 0 H 0 Z"
         id="path3366" /></clipPath></defs><g
     id="g3360"
     transform="matrix(1.3333333,0,0,-1.3333333,0,682.66667)"><g
       id="g3362"><g
         id="g3364"
         clip-path="url(#clipPath3368)"><g
           id="g3370"
           transform="translate(33.2676,325.9585)"><path
             d="M 0,0 C 0,77.798 63.293,141.091 141.092,141.091 218.89,141.091 282.183,77.798 282.183,0 Z"
             style="fill:#6a647f;fill-opacity:1;fill-rule:nonzero;stroke:none"
             id="path3372" /></g><g
           id="g3374"
           transform="translate(158.7812,130.7891)"><path
             d="M 0,0 H -64.376 C -76.114,0 -85.63,-9.516 -85.63,-21.254 v -76.328 c 0,-14.198 11.509,-25.707 25.707,-25.707 h 81.177 l 53.442,54.818 -53.442,47.217 C 21.254,-9.516 11.738,0 0,0"
             style="fill:#ff8997;fill-opacity:1;fill-rule:nonzero;stroke:none"
             id="path3376" /></g><g
           id="g3378"
           transform="translate(286.9189,7.5)"><path
             d="m 0,0 h -106.884 v 156.042 c 0,11.739 9.516,21.255 21.255,21.255 h 64.375 C -9.516,177.297 0,167.781 0,156.042 L 53.442,88.648 Z"
             style="fill:#fbf4ad;fill-opacity:1;fill-rule:nonzero;stroke:none"
             id="path3380" /></g><g
           id="g3382"
           transform="translate(393.8037,7.5)"><path
             d="m 0,0 h -106.885 v 210.051 c 0,11.739 9.517,21.254 21.255,21.254 h 64.375 C -9.516,231.305 0,221.79 0,210.051 l 53.442,-86.762 z"
             style="fill:#50e1cd;fill-opacity:1;fill-rule:nonzero;stroke:none"
             id="path3384" /></g><g
           id="g3386"
           transform="translate(189.1729,466.2729)"><path
             d="m 0,0 c -4.869,0.51 -9.812,0.777 -14.813,0.777 -14.906,0 -29.275,-2.331 -42.771,-6.634 0.104,1.78 0.11,3.586 -0.017,5.419 -1.415,20.521 -18.041,37.148 -38.563,38.563 -20.167,1.391 -37.536,-11.597 -42.879,-29.736 -3.451,-11.719 -11.38,-21.721 -22.527,-26.717 -2.4,-1.075 -4.697,-1.891 -6.872,-2.498 -9.535,-2.661 -12.613,-14.751 -5.578,-21.715 10.295,-10.19 25.071,-19.576 43.438,-17.221 -15.951,-22.856 -25.323,-50.629 -25.323,-80.552 h 57.042 c -0.054,1.618 -0.091,3.241 -0.091,4.874 0,63.863 41.689,117.836 98.954,135.44"
             style="fill:#5c586f;fill-opacity:1;fill-rule:nonzero;stroke:none"
             id="path3388" /></g><g
           id="g3390"
           transform="translate(260.5,319.8931)"><path
             d="m 0,0 c 0,-16.846 13.656,-30.502 30.502,-30.502 16.846,0 30.502,13.656 30.502,30.502 0,16.846 -13.656,30.502 -30.502,30.502 C 13.656,30.502 0,16.846 0,0"
             style="fill:#c7856a;fill-opacity:1;fill-rule:nonzero;stroke:none"
             id="path3392" /></g><g
           id="g3394"
           transform="translate(267.0059,381.2939)"><path
             d="M 0,0 C -7.234,11.994 -20.176,19.406 -34.18,19.677 -48.319,19.952 -64.423,17.043 -79.549,6.925 -87.5,1.606 -97.796,1.606 -105.748,6.924 c -15.127,10.119 -31.232,13.027 -45.372,12.751 -14.2,-0.278 -27.19,-7.956 -34.463,-20.155 -9.718,-16.3 -15.271,-35.374 -15.186,-55.75 0.247,-58.982 48.341,-107.233 107.323,-107.658 60.08,-0.434 108.919,48.138 108.919,108.117 C 15.473,-35.367 9.821,-16.285 0,0"
             style="fill:#da9d81;fill-opacity:1;fill-rule:nonzero;stroke:none"
             id="path3396" /></g><g
           id="g3398"
           transform="translate(488.7041,471.6475)"><path
             d="M 0,0 -65.009,10.386 C -76.34,12.196 -84.724,0.083 -79.038,-9.885 l 6.986,-12.244 -65.857,-37.572 c -6.906,-3.94 -9.311,-12.733 -5.371,-19.638 l 12.629,-22.135 c 3.939,-6.906 12.731,-9.31 19.637,-5.37 l 65.858,37.572 6.985,-12.246 c 5.687,-9.966 20.381,-8.914 24.589,1.762 L 10.56,-18.51 C 13.763,-10.383 8.626,-1.378 0,0"
             style="fill:#50e1cd;fill-opacity:1;fill-rule:nonzero;stroke:none"
             id="path3400" /></g><g
           id="g3402"
           transform="translate(479.4336,292.8135)"><path
             d="M 0,0 H -64.376 C -76.114,0 -85.63,-9.516 -85.63,-21.254 v -264.059 h 81.177 c 14.198,0 25.707,11.509 25.707,25.707 V -21.254 C 21.254,-9.516 11.738,0 0,0"
             style="fill:#93bbe7;fill-opacity:1;fill-rule:nonzero;stroke:none"
             id="path3404" /></g><g
           id="g3406"
           transform="translate(138.8975,223.4097)"><path
             d="m 0,0 c -29.798,25.952 -48.679,64.448 -48.679,107.423 0,25.141 6.469,48.746 17.798,69.209 -11.024,-2.406 -20.69,-9.328 -26.594,-19.228 -5.903,-9.902 -10.257,-20.832 -12.756,-32.451 -3.4,1.308 -7.089,2.033 -10.951,2.033 -16.845,0 -30.502,-13.656 -30.502,-30.503 0,-16.845 13.657,-30.502 30.502,-30.502 4.921,0 9.566,1.173 13.682,3.242 C -57.12,36.955 -31.928,11.166 0,0"
             style="fill:#c7856a;fill-opacity:1;fill-rule:nonzero;stroke:none"
             id="path3408" /></g><g
           id="g3410"
           transform="translate(393.8037,81.207)"><path
             d="m 0,0 v -73.707 h 81.177 c 14.198,0 25.707,11.51 25.707,25.707 v 238.352 c 0,11.739 -9.516,21.254 -21.254,21.254 H 21.254 C 9.516,211.606 0,202.091 0,190.352 V 30"
             style="fill:none;stroke:#000000;stroke-width:15;stroke-linecap:round;stroke-linejoin:round;stroke-miterlimit:10;stroke-dasharray:none;stroke-opacity:1"
             id="path3412" /></g><g
           id="g3414"
           transform="translate(158.7812,130.7891)"><path
             d="M 0,0 H -64.376 C -76.114,0 -85.63,-9.516 -85.63,-21.254 v -76.328 c 0,-14.198 11.509,-25.707 25.707,-25.707 H 21.254 V -21.254 C 21.254,-9.516 11.738,0 0,0 Z"
             style="fill:none;stroke:#000000;stroke-width:15;stroke-linecap:round;stroke-linejoin:round;stroke-miterlimit:10;stroke-dasharray:none;stroke-opacity:1"
             id="path3416" /></g><g
           id="g3418"
           transform="translate(286.9199,7.5)"><path
             d="m 0,0 h -106.885 v 156.042 c 0,11.739 9.516,21.255 21.255,21.255 h 64.375 C -9.517,177.297 0,167.781 0,156.042 Z"
             style="fill:none;stroke:#000000;stroke-width:15;stroke-linecap:round;stroke-linejoin:round;stroke-miterlimit:10;stroke-dasharray:none;stroke-opacity:1"
             id="path3420" /></g><g
           id="g3422"
           transform="translate(393.8037,111.207)"><path
             d="m 0,0 v 106.344 c 0,11.739 -9.516,21.255 -21.255,21.255 H -85.63 c -11.738,0 -21.254,-9.516 -21.254,-21.255 V -103.707 H 0 V -30"
             style="fill:none;stroke:#000000;stroke-width:15;stroke-linecap:round;stroke-linejoin:round;stroke-miterlimit:10;stroke-dasharray:none;stroke-opacity:1"
             id="path3424" /></g><g
           id="g3426"
           transform="translate(113.0088,336.7939)"><path
             d="M 0,0 V -11.789"
             style="fill:none;stroke:#000000;stroke-width:15;stroke-linecap:round;stroke-linejoin:round;stroke-miterlimit:10;stroke-dasharray:none;stroke-opacity:1"
             id="path3428" /></g><g
           id="g3430"
           transform="translate(235.709,336.7939)"><path
             d="M 0,0 V -11.789"
             style="fill:none;stroke:#000000;stroke-width:15;stroke-linecap:round;stroke-linejoin:round;stroke-miterlimit:10;stroke-dasharray:none;stroke-opacity:1"
             id="path3432" /></g><g
           id="g3434"
           transform="translate(158.1846,325.356)"><path
             d="m 0,0 c 3.933,-4.513 9.718,-7.369 16.175,-7.369 6.456,0 12.241,2.856 16.174,7.369"
             style="fill:none;stroke:#000000;stroke-width:15;stroke-linecap:round;stroke-linejoin:round;stroke-miterlimit:10;stroke-dasharray:none;stroke-opacity:1"
             id="path3436" /></g><g
           id="g3438"
           transform="translate(488.7041,471.6475)"><path
             d="M 0,0 -65.009,10.386 C -76.34,12.196 -84.724,0.083 -79.038,-9.885 l 6.986,-12.244 -65.857,-37.573 c -6.906,-3.939 -9.311,-12.732 -5.371,-19.638 l 12.629,-22.134 c 3.939,-6.906 12.731,-9.31 19.637,-5.371 l 65.858,37.573 6.985,-12.246 c 5.687,-9.966 20.381,-8.914 24.589,1.762 L 10.56,-18.51 C 13.763,-10.383 8.626,-1.378 0,0 Z"
             style="fill:none;stroke:#000000;stroke-width:15;stroke-linecap:round;stroke-linejoin:round;stroke-miterlimit:10;stroke-dasharray:none;stroke-opacity:1"
             id="path3440" /></g><g
           id="g3442"
           transform="translate(58.5986,406.5122)"><path
             d="m 0,0 c 17.573,25.182 43.137,44.393 72.99,53.912 0.104,1.777 0.111,3.58 -0.016,5.411 C 71.559,79.845 54.933,96.471 34.41,97.886 14.243,99.277 -3.126,86.289 -8.469,68.149 -11.92,56.431 -19.849,46.429 -30.996,41.433 c -2.4,-1.075 -4.696,-1.891 -6.872,-2.498 C -47.402,36.274 -50.48,24.184 -43.445,17.22 -33.149,7.028 -18.371,-2.359 0,0 Z"
             style="fill:none;stroke:#000000;stroke-width:15;stroke-linecap:round;stroke-linejoin:round;stroke-miterlimit:10;stroke-dasharray:none;stroke-opacity:1"
             id="path3444" /></g><g
           id="g3446"
           transform="translate(239.5098,451.0747)"><path
             d="m 0,0 c -19.5,10.197 -41.661,15.975 -65.15,15.975 -73.436,0 -133.937,-56.396 -140.493,-128.151 5.589,7.004 14.192,11.497 23.849,11.497 3.861,0 7.551,-0.725 10.95,-2.033 2.499,11.619 6.854,22.549 12.758,32.451 7.274,12.2 20.262,19.878 34.462,20.156 14.14,0.275 30.245,-2.633 45.373,-12.751 7.951,-5.318 18.247,-5.318 26.198,0 15.126,10.118 31.23,13.027 45.369,12.752 14.004,-0.271 26.946,-7.683 34.18,-19.677 6.049,-10.03 10.509,-21.123 13.048,-32.93 3.399,1.308 7.088,2.032 10.948,2.032 9.657,0 18.26,-4.493 23.849,-11.497 -3.481,38.098 -22.17,71.866 -49.927,95.163"
             style="fill:none;stroke:#000000;stroke-width:15;stroke-linecap:round;stroke-linejoin:round;stroke-miterlimit:10;stroke-dasharray:none;stroke-opacity:1"
             id="path3448" /></g><g
           id="g3450"
           transform="translate(66.2373,325.0635)"><path
             d="m 0,0 c -0.033,7.999 0.814,15.791 2.429,23.299 -3.4,1.308 -7.089,2.033 -10.95,2.033 -16.846,0 -30.502,-13.656 -30.502,-30.502 0,-16.846 13.656,-30.502 30.502,-30.502 4.917,0 9.558,1.17 13.671,3.236 C 1.854,-22.19 0.048,-11.293 0,0 Z"
             style="fill:none;stroke:#000000;stroke-width:15;stroke-linecap:round;stroke-linejoin:round;stroke-miterlimit:10;stroke-dasharray:none;stroke-opacity:1"
             id="path3452" /></g><g
           id="g3454"
           transform="translate(291.002,350.3955)"><path
             d="m 0,0 c -3.86,0 -7.549,-0.724 -10.948,-2.032 1.584,-7.364 2.425,-15.003 2.425,-22.84 0,-11.478 -1.794,-22.536 -5.109,-32.916 4.104,-2.054 8.731,-3.216 13.632,-3.216 16.846,0 30.502,13.656 30.502,30.502 C 30.502,-13.656 16.846,0 0,0 Z"
             style="fill:none;stroke:#000000;stroke-width:15;stroke-linecap:round;stroke-linejoin:round;stroke-miterlimit:10;stroke-dasharray:none;stroke-opacity:1"
             id="path3456" /></g><g
           id="g3458"
           transform="translate(267.0059,381.2939)"><path
             d="M 0,0 C -7.234,11.994 -20.176,19.406 -34.18,19.677 -48.319,19.952 -64.423,17.043 -79.549,6.925 -87.5,1.606 -97.796,1.606 -105.747,6.924 c -15.128,10.118 -31.233,13.027 -45.373,12.751 -14.2,-0.278 -27.19,-7.956 -34.462,-20.155 -9.719,-16.3 -15.272,-35.374 -15.187,-55.75 0.247,-58.982 48.341,-107.233 107.323,-107.658 60.08,-0.434 108.919,48.138 108.919,108.117 C 15.473,-35.367 9.821,-16.285 0,0 Z"
             style="fill:none;stroke:#000000;stroke-width:15;stroke-linecap:round;stroke-linejoin:round;stroke-miterlimit:10;stroke-dasharray:none;stroke-opacity:1"
             id="path3460" /></g></g></g></g></svg>
