<svg enable-background="new 0 0 512 512" viewBox="0 0 512 512" xmlns="http://www.w3.org/2000/svg"><g id="_x32_0_Play_Ground"><g><path d="m504.168 478.877c-1.374 13.893-13.787 24.089-27.733 24.089h-60.908c-10.354 0-19.757-5.917-24.194-15.32l-64.553-137.03c-2.536-5.388-6.497-9.773-11.304-12.783-4.543-2.959-9.878-4.649-15.478-4.86v-53.46h35.393c10.354 0 19.757 5.969 24.141 15.319l65.662 139.249c4.438 9.456 13.946 15.425 24.405 15.425h27.945c15.636 0 28.156 13.47 26.624 29.371z" fill="#d81a60"/><path d="m315.845 279.513v54.832c0 1.216-.159 2.378-.37 3.487-4.543-2.959-9.878-4.649-15.478-4.86v-53.46h15.848z" opacity=".1"/><g><path d="m299.997 180.359v153.986h-239.406v-153.986l119.703-114.156z" fill="#cce0f1"/><path d="m299.997 180.359v21.922l-119.703-114.208-119.703 114.208v-21.922l119.703-114.156z" opacity=".1"/><path d="m328.893 198.779c-5.95 0-11.91-2.2-16.553-6.632l-132.041-125.966-132.041 125.966c-9.586 9.146-24.776 8.79-33.917-.799-9.141-9.586-8.785-24.769.801-33.914l148.599-141.763c9.267-8.841 23.848-8.841 33.116 0l148.598 141.763c9.586 9.146 9.942 24.328.801 33.914-4.713 4.941-11.034 7.431-17.363 7.431z" fill="#246abf"/><path d="m262.068 334.345h37.929v168.62h-37.929z" fill="#faa629"/><path d="m60.591 334.345h37.982v168.62h-37.982z" fill="#faa629"/><path d="m60.591 334.345h37.982v15.848h-37.982z" opacity=".1"/><path d="m262.068 334.345h37.929v15.848h-37.929z" opacity=".1"/><path d="m253.465 285.016v49.317h-146.33v-49.317c0-40.396 32.768-73.165 73.165-73.165 20.198 0 38.477 8.204 51.72 21.446 13.24 13.241 21.445 31.521 21.445 51.719z" fill="#fff"/><path d="m477.568 444.244h-27.971c-8.373 0-16.08-4.875-19.645-12.417l-65.635-139.23c-5.262-11.169-16.611-18.383-28.91-18.383h-30.122v-81.492l3.405 3.249c11.595 11.065 30.113 10.84 41.389-.978 11.138-11.679 10.699-30.243-.975-41.381l-148.598-141.762c-11.329-10.808-29.085-10.808-40.414 0l-148.597 141.762c-11.675 11.138-12.113 29.702-.975 41.381 11.354 11.908 29.897 11.925 41.384.978l3.41-3.253v310.255c0 2.917 2.363 5.283 5.283 5.283h37.948c2.92 0 5.283-2.365 5.283-5.283v-163.357c1.105 0 34.643 0 33.243 0v163.357c0 2.917 2.363 5.283 5.283 5.283s5.283-2.365 5.283-5.283v-35.559h65.331v35.559c0 2.917 2.363 5.283 5.283 5.283s5.283-2.365 5.283-5.283v-163.357c.995 0 33.829 0 33.243 0v163.357c0 2.917 2.363 5.283 5.283 5.283h37.948c2.92 0 5.283-2.365 5.283-5.283v-163.87c7.257 1.849 13.417 6.772 16.714 13.745l64.577 137.071c5.246 11.14 16.616 18.337 28.956 18.337h60.884c16.931 0 31.422-12.675 32.985-28.858 1.833-18.976-13.108-35.154-31.839-35.154zm-182.847-115.193c-.946 0-37.344 0-35.972 0v-44.035c0-43.311-35.129-78.447-78.449-78.447-43.256 0-78.449 35.19-78.449 78.447v44.035c-.718 0-37.5 0-35.972 0v-146.41l114.42-109.149c5.937 5.663-30.234-28.842 114.421 109.152.001 42.664.001 79.912.001 146.407zm-250.112-140.726c-7.404 7.07-19.256 6.916-26.444-.622-7.119-7.465-6.835-19.33.624-26.446l148.598-141.762c7.243-6.908 18.582-6.908 25.825 0l148.598 141.762c7.46 7.117 7.743 18.982.624 26.444-7.263 7.616-19.11 7.632-26.449.624-31.491-30.043-100.558-95.934-132.038-125.967-2.063-1.964-5.268-1.93-7.294 0zm48.652 309.366h-27.383v-158.075h27.383zm119.704-84.32h-65.331v-32.913h65.331zm-65.331 43.478v-32.913h65.331v32.913zm65.331-86.956h-65.331v-30.277h65.331zm-100.55-40.842v-44.035c0-37.429 30.452-67.882 67.884-67.882 37.472 0 67.884 30.401 67.884 67.882v44.035c-29.78 0-102.593 0-135.768 0zm182.306 168.64h-27.383v-158.075h27.383zm181.696 0h-60.884c-8.27 0-15.884-4.818-19.402-12.275l-64.577-137.076c-5.061-10.704-14.852-18.087-26.268-20.099v-43.463h30.122c8.228 0 15.827 4.836 19.356 12.322l65.635 139.232c5.298 11.225 16.761 18.476 29.199 18.476h27.971c12.28 0 22.571 10.547 21.321 23.573-1.048 10.829-10.922 19.31-22.473 19.31z" fill="#25294f"/></g></g></g><g id="Layer_1"/></svg>