<svg id="Capa_1" enable-background="new 0 0 512 512" height="512" viewBox="0 0 512 512" width="512" xmlns="http://www.w3.org/2000/svg"><g><g><path d="m25.654 53.092h461.725v389.395h-461.725z" fill="#faf7f7"/><path d="m217.79 346.046h76.421v103.706h-76.421z" fill="#ffe0cf"/><path d="m217.79 370.378v13.651h46.16c6.476 0 11.725 5.25 11.725 11.725v29.888h18.537v-55.265h-76.422z" fill="#ffcfc0"/><path d="m173.988 265.022 47.031 48.151c2.945 3.016 2.889 7.848-.127 10.793-2.308 2.255-5.697 2.741-8.473 1.497l-61.351-27.687c-10.24-4.621-14.795-16.668-10.174-26.908 5.855-12.969 22.973-16.138 33.094-5.846z" fill="#ffe177"/><path d="m338.013 265.022-47.031 48.151c-2.945 3.016-2.889 7.848.127 10.793 2.308 2.255 5.697 2.741 8.473 1.497l61.351-27.687c10.24-4.621 14.795-16.668 10.173-26.908-5.854-12.969-22.972-16.138-33.093-5.846z" fill="#ffe177"/><path d="m12.588 425.642h486.826v78.858h-486.826z" fill="#685e68"/><path d="m473.888 377.783h30.612v-317.064h-101.952c-30.013 141.505 13.872 274.129 71.34 317.064z" fill="#ff6470"/><path d="m393.251 134.104c1.035-23.895 4.019-48.501 9.297-73.385h101.952v90.795l-70.987-9.457c-13.682-1.823-27.122-4.501-40.262-7.953z" fill="#ff4555"/><path d="m452.815 402.147h51.685v-24.363h-51.686c-4.099 0-7.422 3.323-7.422 7.422v9.519c.001 4.099 3.324 7.422 7.423 7.422z" fill="#ff4555"/><path d="m465.393 402.147h39.107v102.353h-15.328c-29.262-17.487-41.148-52.16-23.779-102.353z" fill="#ff6470"/><path d="m38.113 377.783h-30.613v-317.064h101.952c30.013 141.505-13.871 274.129-71.339 317.064z" fill="#ff6470"/><path d="m118.749 134.104c-1.035-23.895-4.019-48.501-9.297-73.385h-101.952v90.795l70.987-9.457c13.683-1.823 27.123-4.501 40.262-7.953z" fill="#ff4555"/><path d="m93.07 17.688c9.187 56.119 78.62 99.743 162.93 99.743s153.743-43.625 162.93-99.743z" fill="#ff4555"/><path d="m278.343 7.5h-270.843v116.931l70.987-9.457c79.356-10.571 150.837-49.287 199.856-107.474z" fill="#ff6470"/><path d="m237.464 47.458c14.885-12.004 28.589-25.368 40.879-39.957h-81.758c12.29 14.588 25.994 27.952 40.879 39.957z" fill="#ff4555"/><path d="m233.658 7.5c49.019 58.187 120.5 96.903 199.855 107.474l70.987 9.457v-116.931z" fill="#ff6470"/><path d="m478.996 7.5v113.534l25.504 3.397v-116.931z" fill="#ff4555"/><path d="m59.186 402.147h-51.686v-24.363h51.686c4.099 0 7.422 3.323 7.422 7.422v9.519c0 4.099-3.323 7.422-7.422 7.422z" fill="#ff4555"/><path d="m46.608 402.147h-39.108v102.353h15.328c29.263-17.487 41.149-52.16 23.78-102.353z" fill="#ff6470"/><path d="m298.165 249.029h-84.329l-22.312 114.156c-.728 3.727 2.125 7.193 5.923 7.193h117.107c3.798 0 6.651-3.466 5.923-7.193z" fill="#ffd15b"/><path d="m205.978 289.232c14.028 10.257 31.313 16.325 50.022 16.325s35.994-6.068 50.022-16.325l-7.858-40.203h-84.329z" fill="#ffc344"/><g fill="#ffc344"><circle cx="198.376" cy="167.252" r="19.702"/><circle cx="313.625" cy="167.252" r="19.702"/></g><circle cx="256" cy="220.699" fill="#ffe177" r="65.882"/><path d="m256 154.816c-3.81 0-7.538.341-11.171.962 31.062 5.308 54.711 32.344 54.711 64.92s-23.649 59.611-54.711 64.92c3.633.621 7.361.962 11.171.962 36.386 0 65.882-29.496 65.882-65.882.001-36.385-29.496-65.882-65.882-65.882z" fill="#ffd15b"/></g><g><path d="m504.5 0h-497c-4.142 0-7.5 3.358-7.5 7.5v497c0 4.143 3.358 7.5 7.5 7.5h497c4.143 0 7.5-3.357 7.5-7.5v-497c0-4.142-3.357-7.5-7.5-7.5zm-51.493 418.142h-151.296v-40.265h12.843c4.06 0 7.868-1.798 10.448-4.932 2.581-3.134 3.614-7.216 2.835-11.199l-7.329-37.499 29.044-13.107c3.775-1.704 5.455-6.146 3.751-9.921-1.704-3.776-6.146-5.458-9.921-3.751l-25.829 11.657-2.023-10.351 27.831-28.493c3.044-3.095 7.221-4.437 11.459-3.68 4.237.756 7.682 3.437 9.449 7.354 1.591 3.523 1.512 7.536-.216 11.011-1.845 3.708-.334 8.21 3.375 10.055 3.707 1.847 8.211.334 10.055-3.375 3.741-7.521 3.908-16.219.458-23.861-3.777-8.372-11.437-14.334-20.486-15.949-9.056-1.615-18.318 1.349-24.807 7.947l-20.614 21.105-2.057-10.523c12.043-13.078 19.406-30.527 19.406-49.664 0-9.986-2.005-19.513-5.634-28.199 10-4.024 17.077-13.825 17.077-25.248 0-14.999-12.202-27.202-27.201-27.202-10.724 0-20.02 6.11-24.449 15.202-9.969-5.074-21.244-7.937-33.176-7.937-11.946 0-23.234 2.869-33.212 7.955-4.483-9.065-13.867-15.22-24.413-15.22-14.999 0-27.202 12.203-27.202 27.202 0 11.423 7.078 21.223 17.078 25.248-3.629 8.686-5.634 18.212-5.634 28.199 0 19.137 7.363 36.586 19.406 49.664l-2.057 10.524-20.631-21.123c-6.471-6.58-15.734-9.54-24.79-7.929-9.05 1.615-16.709 7.577-20.487 15.949-3.059 6.778-3.295 14.342-.665 21.298s7.812 12.472 14.59 15.53l43.508 19.635-7.329 37.499c-.779 3.983.255 8.065 2.835 11.199 2.581 3.134 6.389 4.932 10.449 4.932h12.843v40.265h-68.995c-4.142 0-7.5 3.357-7.5 7.5s3.358 7.5 7.5 7.5h309.184c-1.349 12.387-.666 23.865 2.06 34.335 2.926 11.242 8.265 21.205 15.74 29.523h-424.555c7.475-8.318 12.814-18.281 15.74-29.523 2.725-10.47 3.409-21.948 2.059-34.335h50.773c4.142 0 7.5-3.357 7.5-7.5s-3.358-7.5-7.5-7.5h-53.301c-.628-2.792-1.349-5.624-2.162-8.495h2.355c8.228 0 14.922-6.694 14.922-14.922v-9.52c0-8.228-6.694-14.922-14.922-14.922h-1.464c20.579-21.548 38.178-53.641 50.529-92.615 16.007-50.513 21.74-107.328 16.631-164.562 10.652-2.965 21.13-6.45 31.385-10.43 11.852 5.914 24.753 10.75 38.385 14.386 4.001 1.068 8.112-1.311 9.179-5.314 1.067-4.002-1.312-8.112-5.314-9.179-8.142-2.172-15.992-4.8-23.471-7.852 29.701-13.677 57.129-31.635 80.938-53.244 18.765 17.061 39.732 31.866 62.667 44.223 5.975 3.219 12.038 6.247 18.183 9.083-24.335 9.943-51.983 15.152-80.834 15.152-9.786 0-19.697-.637-29.459-1.893-4.106-.529-7.867 2.374-8.396 6.481-.529 4.108 2.373 7.867 6.481 8.396 10.394 1.337 20.949 2.016 31.373 2.016 36.053 0 70.459-7.669 99.604-22.189 10.303 3.998 20.814 7.479 31.509 10.434-5.074 56.904.569 113.387 16.397 163.732 12.363 39.326 30.047 71.686 50.766 93.375h-1.461c-8.228 0-14.922 6.694-14.922 14.922v9.52c0 8.228 6.694 14.922 14.922 14.922h2.354c-.813 2.869-1.534 5.701-2.162 8.493zm-266.833-250.89c0-6.728 5.474-12.202 12.202-12.202 5.361 0 10.051 3.541 11.632 8.506-5.532 4.461-10.405 9.708-14.449 15.569-5.374-1.274-9.385-6.114-9.385-11.873zm69.826-4.936c32.192 0 58.382 26.19 58.382 58.382s-26.19 58.382-58.382 58.382-58.382-26.19-58.382-58.382 26.191-58.382 58.382-58.382zm60.441 16.809c-4.045-5.863-8.921-11.112-14.456-15.574 1.563-4.988 6.19-8.5 11.639-8.5 6.728 0 12.201 5.474 12.201 12.202.001 5.758-4.009 10.597-9.384 11.872zm-121.993 130-40.294-18.185c-3.126-1.411-5.516-3.955-6.729-7.163-1.213-3.209-1.104-6.697.307-9.823 1.768-3.916 5.212-6.597 9.45-7.353 4.242-.756 8.417.585 11.442 3.661l27.848 28.512zm20.663-27.52c11.692 7.875 25.764 12.475 40.89 12.475s29.198-4.601 40.89-12.476l15.884 81.273h-113.549zm10.179 96.272h61.421v40.265h-61.421zm-115.141-261.029c9.985 119.202-30.243 218.35-74.586 253.436h-20.563v-239.286l64.477-8.59c10.328-1.375 20.566-3.236 30.672-5.56zm-95.149 268.436h44.107v9.363h-44.107zm482-15h-20.563c-44.471-35.174-84.575-134.198-74.589-253.395 10.081 2.298 20.312 4.14 30.676 5.52l64.477 8.59v239.285zm-44.107 24.363v-9.363h44.107v9.363zm44.107-379.647v100.866l-62.496-8.326c-71.837-9.57-136.589-42.235-184.107-92.54zm-482 0h215.196c4.78 5.543 9.752 10.906 14.912 16.084-45.517 41.006-104.805 68.09-167.611 76.456l-62.497 8.326zm0 482v-87.354h26.18c12.478 40.035 5.276 70.847-20.484 87.354zm476.304 0c-25.76-16.508-32.961-47.318-20.484-87.354h26.18v87.354z"/><path d="m256 321.509c4.142 0 7.5-3.357 7.5-7.5v-4.306c0-4.143-3.358-7.5-7.5-7.5s-7.5 3.357-7.5 7.5v4.306c0 4.143 3.358 7.5 7.5 7.5z"/><path d="m256 347.621c4.142 0 7.5-3.357 7.5-7.5v-4.307c0-4.143-3.358-7.5-7.5-7.5s-7.5 3.357-7.5 7.5v4.307c0 4.142 3.358 7.5 7.5 7.5z"/><path d="m231.375 218.023c4.142 0 7.5-3.358 7.5-7.5v-5.725c0-4.142-3.358-7.5-7.5-7.5s-7.5 3.358-7.5 7.5v5.725c0 4.142 3.357 7.5 7.5 7.5z"/><path d="m280.626 218.023c4.143 0 7.5-3.358 7.5-7.5v-5.725c0-4.142-3.357-7.5-7.5-7.5s-7.5 3.358-7.5 7.5v5.725c0 4.142 3.357 7.5 7.5 7.5z"/><path d="m233.198 240.193c0 12.573 10.229 22.803 22.803 22.803 12.573 0 22.802-10.229 22.802-22.803 0-4.142-3.357-7.5-7.5-7.5s-7.5 3.358-7.5 7.5c0 4.302-3.5 7.803-7.802 7.803s-7.803-3.5-7.803-7.803c0-4.142-3.358-7.5-7.5-7.5s-7.5 3.358-7.5 7.5z"/><path d="m99.925 449.614c-4.142 0-7.5 3.357-7.5 7.5v15.915c0 4.143 3.358 7.5 7.5 7.5s7.5-3.357 7.5-7.5v-15.915c0-4.143-3.358-7.5-7.5-7.5z"/><path d="m127.108 457.114v15.915c0 4.143 3.358 7.5 7.5 7.5s7.5-3.357 7.5-7.5v-15.915c0-4.143-3.358-7.5-7.5-7.5s-7.5 3.357-7.5 7.5z"/><path d="m169.292 480.529c4.142 0 7.5-3.357 7.5-7.5v-15.915c0-4.143-3.358-7.5-7.5-7.5s-7.5 3.357-7.5 7.5v15.915c0 4.142 3.357 7.5 7.5 7.5z"/><path d="m203.975 480.529c4.142 0 7.5-3.357 7.5-7.5v-15.915c0-4.143-3.358-7.5-7.5-7.5s-7.5 3.357-7.5 7.5v15.915c0 4.142 3.358 7.5 7.5 7.5z"/><path d="m238.659 480.529c4.142 0 7.5-3.357 7.5-7.5v-15.915c0-4.143-3.358-7.5-7.5-7.5s-7.5 3.357-7.5 7.5v15.915c0 4.142 3.358 7.5 7.5 7.5z"/><path d="m273.342 480.529c4.143 0 7.5-3.357 7.5-7.5v-15.915c0-4.143-3.357-7.5-7.5-7.5s-7.5 3.357-7.5 7.5v15.915c0 4.142 3.357 7.5 7.5 7.5z"/><path d="m308.025 480.529c4.143 0 7.5-3.357 7.5-7.5v-15.915c0-4.143-3.357-7.5-7.5-7.5s-7.5 3.357-7.5 7.5v15.915c0 4.142 3.358 7.5 7.5 7.5z"/><path d="m342.709 480.529c4.143 0 7.5-3.357 7.5-7.5v-15.915c0-4.143-3.357-7.5-7.5-7.5s-7.5 3.357-7.5 7.5v15.915c0 4.142 3.357 7.5 7.5 7.5z"/><path d="m377.393 480.529c4.143 0 7.5-3.357 7.5-7.5v-15.915c0-4.143-3.357-7.5-7.5-7.5s-7.5 3.357-7.5 7.5v15.915c0 4.142 3.357 7.5 7.5 7.5z"/><path d="m412.076 480.529c4.143 0 7.5-3.357 7.5-7.5v-15.915c0-4.143-3.357-7.5-7.5-7.5s-7.5 3.357-7.5 7.5v15.915c0 4.142 3.358 7.5 7.5 7.5z"/><path d="m60.953 162.885c-4.119.442-7.098 4.14-6.656 8.258.102.95 9.795 95.782-25.548 167.187-1.837 3.712-.318 8.211 3.395 10.049 1.069.529 2.204.78 3.321.78 2.762 0 5.419-1.532 6.728-4.175 37.262-75.28 27.455-171.39 27.019-175.444-.443-4.118-4.146-7.1-8.259-6.655z"/><path d="m476.536 349.16c1.117 0 2.252-.251 3.321-.78 3.712-1.838 5.232-6.336 3.395-10.049-35.291-71.3-25.649-166.239-25.548-167.189.441-4.118-2.538-7.813-6.655-8.256-4.12-.445-7.816 2.538-8.259 6.656-.436 4.054-10.242 100.164 27.019 175.444 1.308 2.641 3.965 4.174 6.727 4.174z"/></g></g></svg>