<svg enable-background="new 0 0 512 512" height="512" viewBox="0 0 512 512" width="512" xmlns="http://www.w3.org/2000/svg"><g id="_x31_3_Dream_House"><g><path d="m57.297 191.325h397.41v248.178h-397.41z" fill="#f4f4f4"/><path d="m425.706 191.346h28.995v248.163h-28.995z" opacity=".15"/><path d="m209.149 296.724h93.705v142.779h-93.705z" fill="#ff6761"/><path d="m181.603 439.503h148.797v31.909h-148.797z" fill="#ffd764"/><path d="m215.091 471.412h81.822v31.909h-81.822z" fill="#ffd764"/><path d="m107.877 340.128h58.341v58.131h-58.341z" fill="#7bffcd"/><path d="m107.877 232.569h58.341v58.131h-58.341z" fill="#7bffcd"/><path d="m345.784 340.128h58.341v58.131h-58.341z" fill="#7bffcd"/><path d="m345.784 232.569h58.341v58.131h-58.341z" fill="#7bffcd"/><path d="m302.87 296.74h-93.736l46.838-65.251z" fill="#f4f4f4"/><path d="m71.317 70.408-49.57 94.752c-6.227 11.903 2.407 26.164 15.84 26.164h436.828c13.433 0 22.067-14.261 15.84-26.164l-49.57-94.752c-7.196-13.756-21.437-22.377-36.961-22.377h-295.446c-15.524 0-29.764 8.622-36.961 22.377z" fill="#ffd764"/><path d="m474.434 191.346h-40.94c13.419 0 22.101-14.261 15.839-26.205l-49.569-94.719c-7.209-13.787-21.417-22.364-36.94-22.364h40.887c15.523 0 29.784 8.577 36.993 22.364l49.57 94.719c6.208 11.944-2.422 26.205-15.84 26.205z" opacity=".15"/><path d="m132.825 8.679h30.335v39.33h-30.335z" fill="#ffd764"/><path d="m348.843 8.679h30.335v39.33h-30.335z" fill="#ffd764"/><g fill="#2b3c65"><path d="m215.091 508.583h81.82c2.909 0 5.262-2.356 5.262-5.262v-26.647h28.228c2.909 0 5.262-2.356 5.262-5.262v-26.64c8.821 0 131.254-.007 148.029-.008 2.909 0 5.262-2.356 5.262-5.262s-2.354-5.262-5.262-5.262h-23.731v-221.845c0-2.906-2.354-5.262-5.262-5.262-2.909 0-5.262 2.356-5.262 5.262v221.845c-53.238 0-90.797 0-141.323 0v-137.515c-.113-.558.02-1.674-.971-3.055l-46.899-65.253c-2.077-2.892-6.425-2.954-8.548.003l-46.838 65.253c-.87 1.212-.861 2.496-.971 3.052v121.728c0 6.958 10.524 6.967 10.524 0v-116.45h83.18v132.237c-78.284 0-156.623 0-235.024 0v-221.845c0-2.906-2.356-5.262-5.262-5.262s-5.262 2.356-5.262 5.262v221.845h-23.73c-2.906 0-5.262 2.356-5.262 5.262s2.356 5.262 5.262 5.262c16.775.001 139.191.007 148.026.008v26.64c0 2.906 2.356 5.262 5.262 5.262h28.228v26.647c0 2.906 2.356 5.262 5.262 5.262zm40.882-268.074 36.621 50.954h-73.196zm35.677 257.55h-71.296v-21.385h71.296zm-104.786-53.287h138.275v21.377c-48.88 0-89.352 0-138.275 0z"/><path d="m102.616 398.258c0 2.906 2.356 5.262 5.262 5.262h58.341c2.906 0 5.262-2.356 5.262-5.262v-58.13c0-2.906-2.356-5.262-5.262-5.262h-58.341c-2.906 0-5.262 2.356-5.262 5.262zm10.524-52.868h47.817v47.606h-47.817z"/><path d="m102.616 232.57v58.13c0 2.906 2.356 5.262 5.262 5.262h58.341c2.906 0 5.262-2.356 5.262-5.262v-58.13c0-2.906-2.356-5.262-5.262-5.262h-58.341c-2.906-.001-5.262 2.356-5.262 5.262zm10.524 5.262h47.817v47.606h-47.817z"/><path d="m340.52 398.258c0 2.906 2.354 5.262 5.262 5.262h58.346c2.909 0 5.262-2.356 5.262-5.262v-58.13c0-2.906-2.354-5.262-5.262-5.262h-58.346c-2.909 0-5.262 2.356-5.262 5.262zm10.524-52.868h47.822v47.606h-47.822z"/><path d="m345.782 295.962h58.346c2.909 0 5.262-2.356 5.262-5.262v-58.13c0-2.906-2.354-5.262-5.262-5.262h-58.346c-2.909 0-5.262 2.356-5.262 5.262v58.13c0 2.906 2.353 5.262 5.262 5.262zm5.262-58.13h47.822v47.606h-47.822z"/><path d="m37.571 196.608h57.092c2.906 0 5.262-2.356 5.262-5.262s-2.356-5.262-5.262-5.262h-57.092c-9.486 0-15.551-10.092-11.177-18.502l49.569-94.722c6.303-12.053 18.69-19.54 32.331-19.54h295.418c13.644 0 26.028 7.487 32.328 19.543l49.564 94.706c4.386 8.439-1.701 18.515-11.172 18.515h-294.994c-2.906 0-5.262 2.356-5.262 5.262s2.356 5.262 5.262 5.262h294.994c17.353 0 28.554-18.432 20.499-33.908l-49.564-94.714c-8.119-15.54-24.081-25.19-41.655-25.19h-19.271v-28.855h6.274c2.909 0 5.262-2.356 5.262-5.262s-2.354-5.262-5.262-5.262c-1.779 0-55.984 0-53.413 0-2.909 0-5.262 2.356-5.262 5.262s2.354 5.262 5.262 5.262h6.28v28.854h-175.159v-28.854h6.277c2.906 0 5.262-2.356 5.262-5.262s-2.356-5.262-5.262-5.262c-1.779 0-55.986 0-53.415 0-2.906 0-5.262 2.356-5.262 5.262s2.356 5.262 5.262 5.262h6.277v28.854h-19.268c-17.57 0-33.533 9.651-41.658 25.185l-49.574 94.732c-8.043 15.473 3.16 33.896 20.509 33.896zm336.346-182.667v28.806h-19.81v-28.806zm-216.018 0v28.806h-19.813v-28.806z"/><path d="m158.284 196.608c2.906 0 5.262-2.356 5.262-5.262s-2.356-5.262-5.262-5.262h-17.577c-2.906 0-5.262 2.356-5.262 5.262s2.356 5.262 5.262 5.262z"/><path d="m235.624 377.006v-7.814c0-2.906-2.356-5.262-5.262-5.262s-5.262 2.356-5.262 5.262v7.814c0 2.906 2.356 5.262 5.262 5.262 2.905 0 5.262-2.356 5.262-5.262z"/></g></g></g></svg>