<?xml version="1.0" encoding="UTF-8" standalone="no"?>
<!-- Created with Inkscape (http://www.inkscape.org/) -->

<svg
   version="1.1"
   id="svg5982"
   xml:space="preserve"
   width="682.66669"
   height="682.66669"
   viewBox="0 0 682.66669 682.66669"
   xmlns="http://www.w3.org/2000/svg"
   xmlns:svg="http://www.w3.org/2000/svg"><defs
     id="defs5986"><clipPath
       clipPathUnits="userSpaceOnUse"
       id="clipPath5996"><path
         d="M 0,512 H 512 V 0 H 0 Z"
         id="path5994" /></clipPath></defs><g
     id="g5988"
     transform="matrix(1.3333333,0,0,-1.3333333,0,682.66667)"><g
       id="g5990"><g
         id="g5992"
         clip-path="url(#clipPath5996)"><g
           id="g5998"
           transform="translate(7.5,263.6387)"><path
             d="m 0,0 v -179.119 c 0,-8.468 6.864,-15.332 15.332,-15.332 8.467,0 15.332,6.864 15.332,15.332 v 150.691 z"
             style="fill:#8ac9fe;fill-opacity:1;fill-rule:nonzero;stroke:none"
             id="path6000" /></g><g
           id="g6002"
           transform="translate(240.6685,200.0381)"><path
             d="m 0,0 v -152.894 c 0,-8.467 6.864,-15.332 15.332,-15.332 8.467,0 15.331,6.865 15.331,15.332 V 0 Z"
             style="fill:#8ac9fe;fill-opacity:1;fill-rule:nonzero;stroke:none"
             id="path6004" /></g><g
           id="g6006"
           transform="translate(473.8364,237.4121)"><path
             d="m 0,0 v -152.893 c 0,-8.467 6.864,-15.332 15.332,-15.332 8.467,0 15.332,6.865 15.332,15.332 v 179.12 z"
             style="fill:#8ac9fe;fill-opacity:1;fill-rule:nonzero;stroke:none"
             id="path6008" /></g><g
           id="g6010"
           transform="translate(504.5,233.4121)"><path
             d="M 0,0 C 0,-38.065 -111.257,-68.925 -248.5,-68.925 -385.743,-68.925 -497,-38.065 -497,0 v 35.55 c 0,0 145.568,28.973 248.5,28.973 C -147.519,64.523 0,35.55 0,35.55 Z"
             style="fill:#fea95c;fill-opacity:1;fill-rule:nonzero;stroke:none"
             id="path6012" /></g><g
           id="g6014"
           transform="translate(504.5,268.9619)"><path
             d="m 0,0 c 0,-38.065 -111.257,-68.924 -248.5,-68.924 -137.243,0 -248.5,30.859 -248.5,68.924 0,38.066 111.257,68.925 248.5,68.925 C -111.257,68.925 0,38.066 0,0"
             style="fill:#fee45a;fill-opacity:1;fill-rule:nonzero;stroke:none"
             id="path6016" /></g><g
           id="g6018"
           transform="translate(256,337.8867)"><path
             d="m 0,0 c -8.438,0 -16.778,-0.116 -25,-0.344 125.503,-3.477 223.5,-32.855 223.5,-68.58 0,-35.726 -97.997,-65.103 -223.5,-68.581 8.222,-0.227 16.562,-0.344 25,-0.344 137.243,0 248.5,30.859 248.5,68.925 C 248.5,-30.858 137.243,0 0,0"
             style="fill:#fedf30;fill-opacity:1;fill-rule:nonzero;stroke:none"
             id="path6020" /></g><g
           id="g6022"
           transform="translate(444.1797,269.9619)"><path
             d="m 0,0 c 0,-14.857 -84.251,-32.47 -188.18,-32.47 -103.928,0 -188.179,17.613 -188.179,32.47 0,14.858 84.251,32.471 188.179,32.471 C -84.251,32.471 0,14.858 0,0"
             style="fill:#8ac9fe;fill-opacity:1;fill-rule:nonzero;stroke:none"
             id="path6024" /></g><g
           id="g6026"
           transform="translate(7.5,263.6387)"><path
             d="m 0,0 v -179.119 c 0,-8.468 6.864,-15.332 15.332,-15.332 8.467,0 15.332,6.864 15.332,15.332 v 115.518"
             style="fill:none;stroke:#000000;stroke-width:15;stroke-linecap:round;stroke-linejoin:round;stroke-miterlimit:10;stroke-dasharray:none;stroke-opacity:1"
             id="path6028" /></g><g
           id="g6030"
           transform="translate(240.6685,164.6221)"><path
             d="m 0,0 v -117.478 c 0,-8.467 6.864,-15.332 15.332,-15.332 8.467,0 15.331,6.865 15.331,15.332 V -0.001"
             style="fill:none;stroke:#000000;stroke-width:15;stroke-linecap:round;stroke-linejoin:round;stroke-miterlimit:10;stroke-dasharray:none;stroke-opacity:1"
             id="path6032" /></g><g
           id="g6034"
           transform="translate(473.8364,200.0293)"><path
             d="m 0,0 v -115.51 c 0,-8.468 6.864,-15.332 15.332,-15.332 8.467,0 15.332,6.864 15.332,15.332 V 63.609"
             style="fill:none;stroke:#000000;stroke-width:15;stroke-linecap:round;stroke-linejoin:round;stroke-miterlimit:10;stroke-dasharray:none;stroke-opacity:1"
             id="path6036" /></g><g
           id="g6038"
           transform="translate(395.3101,176.3291)"><path
             d="m 0,0 c -39.733,-7.475 -87.683,-11.842 -139.31,-11.842 -137.243,0 -248.5,30.86 -248.5,68.925 v 35.55"
             style="fill:none;stroke:#000000;stroke-width:15;stroke-linecap:round;stroke-linejoin:round;stroke-miterlimit:10;stroke-dasharray:none;stroke-opacity:1"
             id="path6040" /></g><g
           id="g6042"
           transform="translate(504.5,268.9619)"><path
             d="M 0,0 V -35.55 C 0,-55.458 -30.432,-73.396 -79.098,-85.978"
             style="fill:none;stroke:#000000;stroke-width:15;stroke-linecap:round;stroke-linejoin:round;stroke-miterlimit:10;stroke-dasharray:none;stroke-opacity:1"
             id="path6044" /></g><g
           id="g6046"
           transform="translate(119.0874,326.4912)"><path
             d="m 0,0 c 39.258,7.202 86.32,11.396 136.913,11.396 137.242,0 248.5,-30.859 248.5,-68.925 0,-38.066 -111.258,-68.924 -248.5,-68.924 -137.243,0 -248.5,30.858 -248.5,68.924 0,19.72 29.858,37.506 77.718,50.069"
             style="fill:none;stroke:#000000;stroke-width:15;stroke-linecap:round;stroke-linejoin:round;stroke-miterlimit:10;stroke-dasharray:none;stroke-opacity:1"
             id="path6048" /></g><g
           id="g6050"
           transform="translate(444.1797,269.9619)"><path
             d="m 0,0 c 0,-14.857 -84.251,-32.47 -188.18,-32.47 -103.928,0 -188.179,17.613 -188.179,32.47 0,14.858 84.251,32.471 188.179,32.471 C -84.251,32.471 0,14.858 0,0 Z"
             style="fill:none;stroke:#000000;stroke-width:15;stroke-linecap:round;stroke-linejoin:round;stroke-miterlimit:10;stroke-dasharray:none;stroke-opacity:1"
             id="path6052" /></g><g
           id="g6054"
           transform="translate(213,407.1875)"><path
             d="M 0,0 V 73"
             style="fill:none;stroke:#000000;stroke-width:15;stroke-linecap:round;stroke-linejoin:round;stroke-miterlimit:10;stroke-dasharray:none;stroke-opacity:1"
             id="path6056" /></g><g
           id="g6058"
           transform="translate(256,373.1875)"><path
             d="M 0,0 V 60.5"
             style="fill:none;stroke:#000000;stroke-width:15;stroke-linecap:round;stroke-linejoin:round;stroke-miterlimit:10;stroke-dasharray:none;stroke-opacity:1"
             id="path6060" /></g><g
           id="g6062"
           transform="translate(299,419.6875)"><path
             d="M 0,0 V 60.5"
             style="fill:none;stroke:#000000;stroke-width:15;stroke-linecap:round;stroke-linejoin:round;stroke-miterlimit:10;stroke-dasharray:none;stroke-opacity:1"
             id="path6064" /></g></g></g></g></svg>
