<svg id="Layer_1" enable-background="new 0 0 512 512" viewBox="0 0 512 512" xmlns="http://www.w3.org/2000/svg"><g><g><path d="m405 219.48v-107.82h-378.97c-10.35 0-18.75 8.39-18.75 18.75v209.45c0 10.35 8.39 18.75 18.75 18.75h378.97 80.97c10.35 0 18.75-8.39 18.75-18.75v-88.69c0-9.23-6.72-17.09-15.84-18.52z" fill="#fff259"/><path d="m7.29 331.55v8.31c0 10.36 8.39 18.75 18.75 18.75h459.94c10.35 0 18.74-8.39 18.74-18.75v-8.31z" fill="#616484"/><g fill="#47b5ff"><path d="m405 111.66 27.35 112.12-27.35-4.3z"/><path d="m65.01 213.92h-32.22c-2.15 0-3.89-1.74-3.89-3.89v-57.02c0-2.15 1.74-3.89 3.89-3.89h32.22c2.15 0 3.89 1.74 3.89 3.89v57.02c.01 2.15-1.74 3.89-3.89 3.89z"/><path d="m126.76 213.92h-32.22c-2.15 0-3.89-1.74-3.89-3.89v-57.02c0-2.15 1.74-3.89 3.89-3.89h32.22c2.15 0 3.89 1.74 3.89 3.89v57.02c0 2.15-1.74 3.89-3.89 3.89z"/><path d="m187.78 213.92h-32.22c-2.15 0-3.89-1.74-3.89-3.89v-57.02c0-2.15 1.74-3.89 3.89-3.89h32.22c2.15 0 3.89 1.74 3.89 3.89v57.02c.01 2.15-1.74 3.89-3.89 3.89z"/></g><g><g><path d="m216.73 150.37h52.63v208.23h-52.63z" fill="#c66d4e"/></g><g><path d="m269.36 150.37h52.63v208.23h-52.63z" fill="#af5a35"/></g></g><path d="m160.94 358.61h-124.11c0-34.28 27.79-62.06 62.06-62.06s62.05 27.78 62.05 62.06z" fill="#ffc738"/><path d="m480.38 358.61h-124.12c0-34.28 27.79-62.06 62.06-62.06s62.06 27.78 62.06 62.06z" fill="#ffc738"/><g><circle cx="98.89" cy="358.61" fill="#616484" r="42.9"/><circle cx="98.89" cy="358.61" fill="#e6eaff" r="14.03"/></g><g><circle cx="418.32" cy="358.61" fill="#616484" r="42.9"/><circle cx="418.32" cy="358.61" fill="#e6eaff" r="14.03"/></g><path d="m382.18 217.89h-36.1c-2.41 0-4.36-1.95-4.36-4.36v-63.93c0-2.41 1.95-4.36 4.36-4.36h36.1c2.41 0 4.36 1.95 4.36 4.36v63.93c0 2.41-1.95 4.36-4.36 4.36z" fill="#47b5ff"/></g><g><path d="m490.01 225.78-51.74-8.12-24.63-100.19 5.08-.03c4.02-.02 7.27-3.3 7.25-7.32-.02-4.01-3.28-7.25-7.29-7.25-.01 0-.03 0-.04 0l-397.67 2.06c-11.57.06-20.97 9.51-20.97 21.07v205.88 8.31c0 14.36 11.68 26.04 26.04 26.04h10.79 12.41c3.54 24.23 24.46 42.9 49.65 42.9s46.1-18.67 49.64-42.9h12.41 195.32 12.41c3.54 24.23 24.46 42.9 49.65 42.9 25.2 0 46.11-18.67 49.65-42.9h12.4 5.6c14.35 0 26.03-11.68 26.03-26.04v-8.31-80.38c0-12.91-9.25-23.73-21.99-25.72zm-77.73-52.76 10.37 42.19-10.37-1.63zm-382.35 178.63h-3.9c-6.32 0-11.46-5.14-11.46-11.46v-1.02h17.84c-1.21 4.06-2.04 8.23-2.48 12.48zm68.96 42.91c-19.64 0-35.62-15.98-35.62-35.62 0-8.29 2.76-16.05 7.97-22.46 6.81-8.36 16.88-13.16 27.64-13.16s20.83 4.8 27.63 13.16c5.21 6.4 7.97 14.17 7.97 22.46.02 19.64-15.95 35.62-35.59 35.62zm49.64-42.91c-1.31-8.9-4.99-17.36-10.7-24.37-9.58-11.78-23.77-18.54-38.94-18.54-15.16 0-29.36 6.76-38.94 18.53-5.71 7.01-9.39 15.47-10.7 24.37h-4.66c.76-5.76 2.43-11.32 4.99-16.59 9.24-19.06 28.13-30.9 49.31-30.9 21.17 0 40.06 11.84 49.3 30.9 2.56 5.27 4.23 10.83 4.99 16.59h-4.65zm60.91 0h-41.6c-.44-4.25-1.27-8.42-2.48-12.48h44.08zm52.63 0h-38.06v-193.99h38.06zm52.63-19.81v.04.04 19.73h-38.06v-193.99h38.06zm34.66 19.81h-20.09v-12.48h22.57c-1.21 4.06-2.04 8.23-2.48 12.48zm68.96 42.91c-19.64 0-35.62-15.98-35.62-35.62 0-8.29 2.76-16.05 7.97-22.46 6.81-8.36 16.88-13.16 27.64-13.16s20.84 4.8 27.65 13.16c5.21 6.4 7.97 14.17 7.97 22.46.01 19.64-15.97 35.62-35.61 35.62zm49.65-42.91c-1.31-8.9-4.99-17.36-10.7-24.37-9.59-11.78-23.78-18.53-38.95-18.53-15.16 0-29.36 6.76-38.94 18.53-5.71 7.01-9.39 15.47-10.7 24.37h-4.66c.76-5.76 2.43-11.32 4.99-16.59 9.24-19.06 28.13-30.9 49.31-30.9 21.17 0 40.06 11.84 49.3 30.9 2.56 5.27 4.23 10.83 4.99 16.59zm29.46-11.46c0 5.88-4.45 10.74-10.16 11.39-.44-4.22-1.27-8.36-2.47-12.41h12.63zm0-15.6h-18.86c-12.24-21.4-35.4-35-60.24-35-24.85 0-48.01 13.6-60.25 35h-28.8v-174.22c0-4.02-3.26-7.29-7.29-7.29h-52.63-52.63c-4.02 0-7.29 3.26-7.29 7.29v174.22h-50.31c-12.24-21.4-35.4-35-60.24-35-24.85 0-48.01 13.6-60.25 35h-24.07v-198.59c0-3.56 2.9-6.48 6.46-6.49l376.67-1.96v8.38.07 93.81c0 3.59 2.61 6.64 6.16 7.2l83.89 13.17c5.61.88 9.68 5.64 9.68 11.32z"/><path d="m65.06 142.57h-31.83c-6.14 0-11.13 5-11.13 11.13v56.37c0 6.14 4.99 11.13 11.13 11.13h31.83c6.14 0 11.13-5 11.13-11.13v-56.37c0-6.13-4.99-11.13-11.13-11.13zm-3.44 64.07h-24.96v-49.49h24.96z"/><path d="m126.32 142.57h-31.83c-6.14 0-11.13 5-11.13 11.13v56.37c0 6.14 4.99 11.13 11.13 11.13h31.83c6.14 0 11.13-5 11.13-11.13v-56.37c.01-6.13-4.99-11.13-11.13-11.13zm-3.43 64.07h-24.96v-49.49h24.96z"/><path d="m187.59 142.57h-31.83c-6.14 0-11.13 5-11.13 11.13v56.37c0 6.14 4.99 11.13 11.13 11.13h31.83c6.14 0 11.13-5 11.13-11.13v-56.37c0-6.13-4.99-11.13-11.13-11.13zm-3.44 64.07h-24.96v-49.49h24.96z"/><path d="m418.32 337.62c-11.75 0-21.31 9.56-21.31 21.31s9.56 21.31 21.31 21.31 21.31-9.56 21.31-21.31-9.56-21.31-21.31-21.31zm0 28.06c-3.72 0-6.74-3.02-6.74-6.74s3.02-6.74 6.74-6.74 6.74 3.02 6.74 6.74c0 3.71-3.02 6.74-6.74 6.74z"/><path d="m382.44 142.57h-36.64c-6.28 0-11.39 5.11-11.39 11.39v55.87c0 6.28 5.11 11.38 11.39 11.38h36.64c6.28 0 11.39-5.11 11.39-11.38v-55.87c0-6.28-5.11-11.39-11.39-11.39zm-3.18 64.07h-30.26v-49.49h30.26z"/><path d="m98.89 337.63c-11.75 0-21.31 9.56-21.31 21.31s9.56 21.31 21.31 21.31 21.31-9.56 21.31-21.31-9.56-21.31-21.31-21.31zm0 28.05c-3.72 0-6.74-3.02-6.74-6.74s3.02-6.74 6.74-6.74 6.74 3.02 6.74 6.74-3.03 6.74-6.74 6.74z"/></g></g></svg>